#!OML:ASF H:\Terrain\Walking\May29\JustinRory\rory.ASF
:FULLY-SPECIFIED
:DEGREES
1298
root 11.9944 18.6713 18.564 -179.779 13.5483 177.337
lowerback -2.25899 2.38059 -2.29602
upperback 1.41237 3.27227 -0.231552
thorax 2.60134 1.59809 1.19001
lowerneck -3.24513 -2.62154 -3.59672
upperneck 19.3429 -2.35316 1.25436
head 6.46931 -0.84583 0.899846
rclavicle -3.68062e-014 5.56597e-015
rhumerus -13.827 -5.02912 -72.0249
rradius 103.148
rwrist 15.739
rhand -18.3105 26.9399
rfingers 7.12502
rthumb 7.97066 -2.88977
lclavicle -3.68062e-014 5.56597e-015
lhumerus -6.58887 1.99818 67.8767
lradius 82.8944
lwrist -16.8297
lhand -18.7773 10.3777
lfingers 7.12502
lthumb 7.5201 40.224
rfemur -0.870978 -4.81408 11.1106
rtibia 47.9293
rfoot -8.74216 -17.0692
rtoes 18.7805
lfemur -14.9193 0.847017 -21.3224
ltibia 29.2044
lfoot -11.3644 0.509494
ltoes -9.83732
1299
root 11.9934 18.6929 18.6051 -179.805 13.8527 177.583
lowerback -2.20853 2.39251 -1.89993
upperback 1.39673 3.26835 -0.12261
thorax 2.57215 1.60181 1.07814
lowerneck -3.28648 -2.90529 -3.91986
upperneck 19.137 -2.67839 0.88129
head 6.42154 -1.06732 0.810597
rclavicle 1.34304e-014 3.97569e-016
rhumerus -14.2625 -1.63966 -73.784
rradius 103.783
rwrist 16.4498
rhand -18.7296 27.9292
rfingers 7.12502
rthumb 7.5662 -1.91552
lclavicle 1.34304e-014 3.97569e-016
lhumerus -8.2508 0.398198 68.8836
lradius 84.6523
lwrist -16.6283
lhand -19.7596 9.90577
lfingers 7.12502
lthumb 6.57189 39.7838
rfemur -0.0316725 -5.1237 11.2132
rtibia 47.5289
rfoot -7.34069 -17.7165
rtoes 17.8169
lfemur -14.9276 0.932767 -21.0213
ltibia 29.052
lfoot -11.0264 0.883746
ltoes -10.8185
1300
root 11.9861 18.6969 18.6519 -179.715 14.0286 177.585
lowerback -2.28317 2.39326 -1.70808
upperback 1.25429 3.26051 -0.140599
thorax 2.4792 1.60217 0.9521
lowerneck -3.24098 -3.20699 -4.06928
upperneck 19.1448 -3.04028 0.646858
head 6.42593 -1.27135 0.736703
rclavicle -2.32951e-014 2.98177e-015
rhumerus -14.8627 2.05047 -75.6044
rradius 104.147
rwrist 17.4367
rhand -21.8462 29.2891
rfingers 7.12502
rthumb 4.55725 -0.641882
lclavicle -2.32951e-014 2.98177e-015
lhumerus -10 -1.42912 70.1531
lradius 86.3095
lwrist -16.853
lhand -20.1512 10.0323
lfingers 7.12502
lthumb 6.19386 39.9218
rfemur 0.713751 -5.42849 11.051
rtibia 46.9955
rfoot -6.53098 -17.9509
rtoes 17.2238
lfemur -15.0958 0.715608 -20.9741
ltibia 28.9112
lfoot -10.7758 1.21015
ltoes -10.4281
1301
root 11.9802 18.6887 18.7064 -179.504 14.1649 177.615
lowerback -2.60324 2.39065 -1.51026
upperback 1.22246 3.25458 -0.146084
thorax 2.63767 1.60038 0.850568
lowerneck -3.5865 -3.42413 -4.01168
upperneck 19.329 -3.27559 0.307681
head 6.54508 -1.41045 0.597648
rclavicle 1.21134e-014 3.97569e-016
rhumerus -15.1911 5.80033 -77.3841
rradius 104.455
rwrist 18.0678
rhand -22.0687 30.6735
rfingers 7.12502
rthumb 4.34241 0.738049
lclavicle 1.21134e-014 3.97569e-016
lhumerus -11.5598 -3.36243 71.6283
lradius 87.8923
lwrist -16.9242
lhand -20.0114 10.1431
lfingers 7.12502
lthumb 6.32879 40.0285
rfemur 1.38496 -5.47036 11.0604
rtibia 46.3271
rfoot -6.54405 -18.2736
rtoes 16.7193
lfemur -15.4029 0.38747 -20.8973
ltibia 28.8153
lfoot -10.6628 1.56102
ltoes -10.0919
1302
root 11.978 18.6903 18.7658 -179.315 14.3623 177.705
lowerback -3.01874 2.42709 -1.2699
upperback 1.28526 3.29967 -0.111554
thorax 2.94636 1.62312 0.77625
lowerneck -3.81776 -3.49788 -3.71078
upperneck 19.3416 -3.30421 -0.284664
head 6.57443 -1.45368 0.352794
rclavicle 1.86112e-014 -1.11319e-014
rhumerus -15.3777 9.58961 -78.9984
rradius 104.716
rwrist 18.1318
rhand -22.1021 32.8748
rfingers 7.12502
rthumb 4.31014 2.93863
lclavicle 1.86112e-014 -1.11319e-014
lhumerus -13.1114 -5.52774 73.2751
lradius 89.4866
lwrist -17.073
lhand -19.6543 9.92986
lfingers 7.12502
lthumb 6.6735 39.8047
rfemur 2.05939 -5.3636 11.2035
rtibia 45.5095
rfoot -6.85031 -18.7912
rtoes 15.5445
lfemur -15.7132 0.135471 -20.7489
ltibia 28.7671
lfoot -10.5214 1.96597
ltoes -9.72464
1303
root 11.9783 18.699 18.8252 -179.238 14.6324 177.694
lowerback -3.31944 2.51464 -1.17881
upperback 1.40513 3.41972 -0.13624
thorax 3.24367 1.68194 0.725402
lowerneck -3.99029 -3.43178 -3.20728
upperneck 19.1852 -3.21405 -0.705204
head 6.53462 -1.41694 0.138782
rclavicle -4.23784e-014 4.96962e-015
rhumerus -15.4793 13.3855 -80.4817
rradius 105.064
rwrist 17.2327
rhand -20.7429 34.6824
rfingers 7.12502
rthumb 5.62253 4.77703
lclavicle -4.23784e-014 4.96962e-015
lhumerus -14.4968 -7.99307 74.9582
lradius 90.8712
lwrist -17.4085
lhand -19.4585 10.209
lfingers 7.12502
lthumb 6.86254 40.0778
rfemur 2.83185 -5.21041 11.2096
rtibia 44.5282
rfoot -6.90295 -19.0349
rtoes 15.4078
lfemur -15.9512 0.0683993 -20.6891
ltibia 28.7243
lfoot -10.348 2.28221
ltoes -8.91524
1304
root 11.9827 18.7009 18.8853 -179.299 14.9419 177.828
lowerback -2.8986 2.61572 -1.21329
upperback 1.45717 3.54722 0.00714867
thorax 3.04677 1.74556 0.87852
lowerneck -5.10635 -3.32884 -2.93234
upperneck 19.7521 -3.03758 -0.885165
head 6.90207 -1.3367 0.028837
rclavicle 6.03808e-014 4.37326e-015
rhumerus -15.5573 17.4159 -81.6974
rradius 104.715
rwrist 18.7769
rhand -21.1052 36.8935
rfingers 7.12502
rthumb 5.27281 6.97906
lclavicle 6.03808e-014 4.37326e-015
lhumerus -15.9101 -10.6299 76.8189
lradius 91.9286
lwrist -17.5115
lhand -20.6805 10.1079
lfingers 7.12502
lthumb 5.68285 40.0117
rfemur 3.83888 -4.89803 11.3739
rtibia 43.3921
rfoot -6.9285 -18.9576
rtoes 16.1168
lfemur -16.013 0.187097 -20.4526
ltibia 28.6749
lfoot -10.3258 2.43322
ltoes -9.52241
1305
root 11.9889 18.6937 18.9477 -179.306 15.3008 177.925
lowerback -1.68831 2.53608 -1.73151
upperback 0.455189 3.41314 0.587205
thorax 1.2748 1.68993 1.66044
lowerneck -4.46677 -3.11437 -3.35318
upperneck 20.6454 -2.42979 -1.37635
head 7.07679 -1.05166 -0.00235692
rclavicle -5.65294e-015 -2.78299e-015
rhumerus -17.51 22.4064 -83.1437
rradius 104.672
rwrist 19.6755
rhand -18.3604 37.7586
rfingers 7.12502
rthumb 7.9225 7.92706
lclavicle -5.65294e-015 -2.78299e-015
lhumerus -19.6492 -12.9154 79.6821
lradius 93.0075
lwrist -17.4333
lhand -22.8895 9.29474
lfingers 7.12502
lthumb 3.54982 39.2449
rfemur 4.76302 -4.33409 11.5756
rtibia 42.1407
rfoot -7.00335 -18.7106
rtoes 16.7463
lfemur -16.1272 0.500716 -20.2582
ltibia 28.6473
lfoot -10.2857 2.44868
ltoes -10.224
1306
root 11.9916 18.6874 19.0155 -179.3 15.6777 177.76
lowerback -0.245847 2.54373 -2.78054
upperback -0.61261 3.40534 1.23019
thorax -0.727535 1.72767 2.79784
lowerneck -4.15279 -2.87874 -3.21784
upperneck 21.5428 -1.72223 -2.43345
head 7.29919 -0.727753 -0.307484
rclavicle -8.81796e-015 -5.1684e-015
rhumerus -19.6664 27.1541 -84.5801
rradius 104.551
rwrist 20.7494
rhand -16.8166 39.2695
rfingers 7.12502
rthumb 9.41227 9.4997
lclavicle -8.81796e-015 -5.1684e-015
lhumerus -23.268 -15.0419 83.1399
lradius 93.9832
lwrist -17.4051
lhand -24.1277 8.05587
lfingers 7.12502
lthumb 2.35407 38.0226
rfemur 5.53872 -3.82715 11.4451
rtibia 40.8027
rfoot -7.01258 -18.0788
rtoes 15.9576
lfemur -16.3758 0.759113 -20.3739
ltibia 28.6187
lfoot -10.0584 2.68394
ltoes -11.3598
1307
root 11.9934 18.6863 19.0848 -179.301 16.1108 177.627
lowerback 1.54472 2.61393 -4.1836
upperback -1.67391 3.45949 2.10041
thorax -2.97255 1.85312 4.3634
lowerneck -4.45005 -2.55795 -3.16806
upperneck 22.6603 -0.842206 -3.42895
head 7.71841 -0.337396 -0.573828
rclavicle 2.08227e-014 1.11319e-014
rhumerus -21.9225 31.8184 -85.8399
rradius 104.432
rwrist 21.4955
rhand -15.8255 41.8222
rfingers 7.12502
rthumb 10.3685 12.0978
lclavicle 2.08227e-014 1.11319e-014
lhumerus -26.576 -16.7815 87.0423
lradius 94.7765
lwrist -17.4085
lhand -23.9013 6.11677
lfingers 7.12502
lthumb 2.57272 36.081
rfemur 6.26512 -3.28502 11.3672
rtibia 39.361
rfoot -6.84737 -17.4084
rtoes 12.7178
lfemur -16.6433 0.756696 -20.4289
ltibia 28.6234
lfoot -9.89562 3.17321
ltoes -12.0637
